<mxfile host="app.diagrams.net" modified="2024-06-26T08:57:41.189Z" agent="Mozilla/5.0 (Windows NT 10.0; Win64; x64; rv:127.0) Gecko/20100101 Firefox/127.0" etag="zfM7tsThdwtnKAlqcOtF" version="24.6.3" type="github">
  <diagram name="Side-1" id="yz6Vw2iaq-_fXURlhGz3">
    <mxGraphModel dx="1434" dy="746" grid="1" gridSize="10" guides="1" tooltips="1" connect="1" arrows="1" fold="1" page="1" pageScale="1" pageWidth="827" pageHeight="1169" math="0" shadow="0">
      <root>
        <mxCell id="0" />
        <mxCell id="1" parent="0" />
        <mxCell id="2" value="User" style="shape=umlLifeline;perimeter=lifelinePerimeter;whiteSpace=wrap;container=1;dropTarget=0;collapsible=0;recursiveResize=0;outlineConnect=0;portConstraint=eastwest;newEdgeStyle={&quot;edgeStyle&quot;:&quot;elbowEdgeStyle&quot;,&quot;elbow&quot;:&quot;vertical&quot;,&quot;curved&quot;:0,&quot;rounded&quot;:0};size=65;" parent="1" vertex="1">
          <mxGeometry width="150" height="524" as="geometry" />
        </mxCell>
        <mxCell id="u5HD4lcB7NiAjP-5w02Q-15" value="&lt;div&gt;Load Images&lt;/div&gt;" style="edgeStyle=elbowEdgeStyle;rounded=0;orthogonalLoop=1;jettySize=auto;html=1;elbow=vertical;curved=0;" edge="1" parent="1" source="3">
          <mxGeometry x="-0.045" y="10" relative="1" as="geometry">
            <mxPoint x="300" y="130" as="sourcePoint" />
            <mxPoint x="460" y="130" as="targetPoint" />
            <mxPoint as="offset" />
          </mxGeometry>
        </mxCell>
        <mxCell id="3" value="Unity Application" style="shape=umlLifeline;perimeter=lifelinePerimeter;whiteSpace=wrap;container=1;dropTarget=0;collapsible=0;recursiveResize=0;outlineConnect=0;portConstraint=eastwest;newEdgeStyle={&quot;edgeStyle&quot;:&quot;elbowEdgeStyle&quot;,&quot;elbow&quot;:&quot;vertical&quot;,&quot;curved&quot;:0,&quot;rounded&quot;:0};size=65;" parent="1" vertex="1">
          <mxGeometry x="200" width="150" height="524" as="geometry" />
        </mxCell>
        <mxCell id="u5HD4lcB7NiAjP-5w02Q-22" value="" style="html=1;points=[[0,0,0,0,5],[0,1,0,0,-5],[1,0,0,0,5],[1,1,0,0,-5]];perimeter=orthogonalPerimeter;outlineConnect=0;targetShapes=umlLifeline;portConstraint=eastwest;newEdgeStyle={&quot;curved&quot;:0,&quot;rounded&quot;:0};" vertex="1" parent="3">
          <mxGeometry x="69.5" y="100" width="10" height="40" as="geometry" />
        </mxCell>
        <mxCell id="u5HD4lcB7NiAjP-5w02Q-23" value="&lt;div&gt;Start&lt;/div&gt;&lt;div&gt;&lt;br&gt;&lt;/div&gt;" style="html=1;align=left;spacingLeft=2;endArrow=block;rounded=0;edgeStyle=orthogonalEdgeStyle;curved=0;rounded=0;" edge="1" target="u5HD4lcB7NiAjP-5w02Q-22" parent="3">
          <mxGeometry relative="1" as="geometry">
            <mxPoint x="74.5" y="80" as="sourcePoint" />
            <Array as="points">
              <mxPoint x="104.5" y="110" />
            </Array>
          </mxGeometry>
        </mxCell>
        <mxCell id="4" value="Local Storage" style="shape=umlLifeline;perimeter=lifelinePerimeter;whiteSpace=wrap;container=1;dropTarget=0;collapsible=0;recursiveResize=0;outlineConnect=0;portConstraint=eastwest;newEdgeStyle={&quot;edgeStyle&quot;:&quot;elbowEdgeStyle&quot;,&quot;elbow&quot;:&quot;vertical&quot;,&quot;curved&quot;:0,&quot;rounded&quot;:0};size=65;" parent="1" vertex="1">
          <mxGeometry x="400" width="150" height="524" as="geometry" />
        </mxCell>
        <mxCell id="5" value="Chat API" style="shape=umlLifeline;perimeter=lifelinePerimeter;whiteSpace=wrap;container=1;dropTarget=0;collapsible=0;recursiveResize=0;outlineConnect=0;portConstraint=eastwest;newEdgeStyle={&quot;edgeStyle&quot;:&quot;elbowEdgeStyle&quot;,&quot;elbow&quot;:&quot;vertical&quot;,&quot;curved&quot;:0,&quot;rounded&quot;:0};size=65;" parent="1" vertex="1">
          <mxGeometry x="600" width="150" height="524" as="geometry" />
        </mxCell>
        <mxCell id="u5HD4lcB7NiAjP-5w02Q-48" value="" style="html=1;points=[[0,0,0,0,5],[0,1,0,0,-5],[1,0,0,0,5],[1,1,0,0,-5]];perimeter=orthogonalPerimeter;outlineConnect=0;targetShapes=umlLifeline;portConstraint=eastwest;newEdgeStyle={&quot;curved&quot;:0,&quot;rounded&quot;:0};" vertex="1" parent="5">
          <mxGeometry x="70" y="425" width="10" height="40" as="geometry" />
        </mxCell>
        <mxCell id="6" value="Image API" style="shape=umlLifeline;perimeter=lifelinePerimeter;whiteSpace=wrap;container=1;dropTarget=0;collapsible=0;recursiveResize=0;outlineConnect=0;portConstraint=eastwest;newEdgeStyle={&quot;edgeStyle&quot;:&quot;elbowEdgeStyle&quot;,&quot;elbow&quot;:&quot;vertical&quot;,&quot;curved&quot;:0,&quot;rounded&quot;:0};size=65;" parent="1" vertex="1">
          <mxGeometry x="800" width="150" height="524" as="geometry" />
        </mxCell>
        <mxCell id="u5HD4lcB7NiAjP-5w02Q-35" value="" style="html=1;points=[[0,0,0,0,5],[0,1,0,0,-5],[1,0,0,0,5],[1,1,0,0,-5]];perimeter=orthogonalPerimeter;outlineConnect=0;targetShapes=umlLifeline;portConstraint=eastwest;newEdgeStyle={&quot;curved&quot;:0,&quot;rounded&quot;:0};" vertex="1" parent="6">
          <mxGeometry x="70" y="385" width="10" height="40" as="geometry" />
        </mxCell>
        <mxCell id="9" value="Send data" style="verticalAlign=bottom;endArrow=block;edgeStyle=elbowEdgeStyle;elbow=vertical;curved=0;rounded=0;endArrow=none;" parent="1" edge="1">
          <mxGeometry relative="1" as="geometry">
            <Array as="points">
              <mxPoint x="385" y="616" />
            </Array>
            <mxPoint x="474.5" y="616" as="sourcePoint" />
            <mxPoint x="274.5" y="616" as="targetPoint" />
          </mxGeometry>
        </mxCell>
        <mxCell id="10" value="Send chat message" style="verticalAlign=bottom;endArrow=block;edgeStyle=elbowEdgeStyle;elbow=vertical;curved=0;rounded=0;endArrow=none;" parent="1" edge="1">
          <mxGeometry relative="1" as="geometry">
            <Array as="points">
              <mxPoint x="485" y="668" />
            </Array>
            <mxPoint x="274.5" y="668" as="sourcePoint" />
            <mxPoint x="674.5" y="668" as="targetPoint" />
          </mxGeometry>
        </mxCell>
        <mxCell id="11" value="Receive chat response" style="verticalAlign=bottom;endArrow=block;edgeStyle=elbowEdgeStyle;elbow=vertical;curved=0;rounded=0;endArrow=none;" parent="1" edge="1">
          <mxGeometry relative="1" as="geometry">
            <Array as="points">
              <mxPoint x="485" y="720" />
            </Array>
            <mxPoint x="674.5" y="720" as="sourcePoint" />
            <mxPoint x="274.5" y="720" as="targetPoint" />
          </mxGeometry>
        </mxCell>
        <mxCell id="12" value="Request image" style="verticalAlign=bottom;endArrow=block;edgeStyle=elbowEdgeStyle;elbow=vertical;curved=0;rounded=0;endArrow=none;" parent="1" edge="1">
          <mxGeometry relative="1" as="geometry">
            <Array as="points">
              <mxPoint x="585" y="772" />
            </Array>
            <mxPoint x="274.5" y="772" as="sourcePoint" />
            <mxPoint x="874.5" y="772" as="targetPoint" />
          </mxGeometry>
        </mxCell>
        <mxCell id="13" value="Send image" style="verticalAlign=bottom;endArrow=block;edgeStyle=elbowEdgeStyle;elbow=vertical;curved=0;rounded=0;endArrow=none;" parent="1" edge="1">
          <mxGeometry relative="1" as="geometry">
            <Array as="points">
              <mxPoint x="585" y="824" />
            </Array>
            <mxPoint x="874.5" y="824" as="sourcePoint" />
            <mxPoint x="274.5" y="824" as="targetPoint" />
          </mxGeometry>
        </mxCell>
        <mxCell id="u5HD4lcB7NiAjP-5w02Q-18" value="Inputs prompt" style="verticalAlign=bottom;endArrow=block;edgeStyle=elbowEdgeStyle;elbow=vertical;curved=0;rounded=0;endArrow=none;" edge="1" parent="1">
          <mxGeometry relative="1" as="geometry">
            <Array as="points">
              <mxPoint x="185" y="280.5" />
            </Array>
            <mxPoint x="75" y="280.5" as="sourcePoint" />
            <mxPoint x="275" y="280.5" as="targetPoint" />
          </mxGeometry>
        </mxCell>
        <mxCell id="u5HD4lcB7NiAjP-5w02Q-24" value="Images loaded" style="edgeStyle=elbowEdgeStyle;rounded=0;orthogonalLoop=1;jettySize=auto;html=1;elbow=vertical;curved=0;" edge="1" parent="1" target="3">
          <mxGeometry x="-0.045" y="10" relative="1" as="geometry">
            <mxPoint x="474.5" y="160" as="sourcePoint" />
            <mxPoint x="300" y="160" as="targetPoint" />
            <mxPoint as="offset" />
          </mxGeometry>
        </mxCell>
        <mxCell id="u5HD4lcB7NiAjP-5w02Q-31" value="" style="html=1;points=[[0,0,0,0,5],[0,1,0,0,-5],[1,0,0,0,5],[1,1,0,0,-5]];perimeter=orthogonalPerimeter;outlineConnect=0;targetShapes=umlLifeline;portConstraint=eastwest;newEdgeStyle={&quot;curved&quot;:0,&quot;rounded&quot;:0};" vertex="1" parent="1">
          <mxGeometry x="270.5" y="205" width="10" height="40" as="geometry" />
        </mxCell>
        <mxCell id="u5HD4lcB7NiAjP-5w02Q-32" value="Initialize UI" style="html=1;align=left;spacingLeft=2;endArrow=block;rounded=0;edgeStyle=orthogonalEdgeStyle;curved=0;rounded=0;" edge="1" parent="1" target="u5HD4lcB7NiAjP-5w02Q-31">
          <mxGeometry relative="1" as="geometry">
            <mxPoint x="275.5" y="185" as="sourcePoint" />
            <Array as="points">
              <mxPoint x="305.5" y="215" />
            </Array>
          </mxGeometry>
        </mxCell>
        <mxCell id="u5HD4lcB7NiAjP-5w02Q-33" value="alt" style="shape=umlFrame;whiteSpace=wrap;html=1;pointerEvents=0;" vertex="1" parent="1">
          <mxGeometry x="210" y="281" width="690" height="269" as="geometry" />
        </mxCell>
        <mxCell id="u5HD4lcB7NiAjP-5w02Q-37" value="" style="html=1;points=[[0,0,0,0,5],[0,1,0,0,-5],[1,0,0,0,5],[1,1,0,0,-5]];perimeter=orthogonalPerimeter;outlineConnect=0;targetShapes=umlLifeline;portConstraint=eastwest;newEdgeStyle={&quot;curved&quot;:0,&quot;rounded&quot;:0};" vertex="1" parent="1">
          <mxGeometry x="270.5" y="385" width="10" height="40" as="geometry" />
        </mxCell>
        <mxCell id="u5HD4lcB7NiAjP-5w02Q-38" value="" style="html=1;points=[[0,0,0,0,5],[0,1,0,0,-5],[1,0,0,0,5],[1,1,0,0,-5]];perimeter=orthogonalPerimeter;outlineConnect=0;targetShapes=umlLifeline;portConstraint=eastwest;newEdgeStyle={&quot;curved&quot;:0,&quot;rounded&quot;:0};" vertex="1" parent="1">
          <mxGeometry x="480" y="130" width="10" height="40" as="geometry" />
        </mxCell>
        <mxCell id="u5HD4lcB7NiAjP-5w02Q-39" value="" style="edgeStyle=elbowEdgeStyle;rounded=0;orthogonalLoop=1;jettySize=auto;html=1;elbow=vertical;curved=0;" edge="1" parent="1" target="6">
          <mxGeometry x="-0.045" y="10" relative="1" as="geometry">
            <mxPoint x="285" y="392" as="sourcePoint" />
            <mxPoint x="656" y="392" as="targetPoint" />
            <mxPoint as="offset" />
          </mxGeometry>
        </mxCell>
        <mxCell id="u5HD4lcB7NiAjP-5w02Q-41" value="&lt;div&gt;If valid&lt;/div&gt;" style="edgeLabel;html=1;align=center;verticalAlign=middle;resizable=0;points=[];" vertex="1" connectable="0" parent="u5HD4lcB7NiAjP-5w02Q-39">
          <mxGeometry x="0.2399" y="-5" relative="1" as="geometry">
            <mxPoint x="-69" y="-19" as="offset" />
          </mxGeometry>
        </mxCell>
        <mxCell id="u5HD4lcB7NiAjP-5w02Q-42" value="" style="html=1;points=[[0,0,0,0,5],[0,1,0,0,-5],[1,0,0,0,5],[1,1,0,0,-5]];perimeter=orthogonalPerimeter;outlineConnect=0;targetShapes=umlLifeline;portConstraint=eastwest;newEdgeStyle={&quot;curved&quot;:0,&quot;rounded&quot;:0};" vertex="1" parent="1">
          <mxGeometry x="270.5" y="315" width="10" height="40" as="geometry" />
        </mxCell>
        <mxCell id="u5HD4lcB7NiAjP-5w02Q-49" value="If not valid" style="edgeLabel;html=1;align=center;verticalAlign=middle;resizable=0;points=[];" vertex="1" connectable="0" parent="1">
          <mxGeometry x="240" y="330" as="geometry" />
        </mxCell>
        <mxCell id="u5HD4lcB7NiAjP-5w02Q-50" value="" style="edgeStyle=elbowEdgeStyle;rounded=0;orthogonalLoop=1;jettySize=auto;html=1;elbow=vertical;curved=0;dashed=1;" edge="1" parent="1" target="2">
          <mxGeometry x="-0.045" y="10" relative="1" as="geometry">
            <mxPoint x="270.5" y="350" as="sourcePoint" />
            <mxPoint x="881" y="350" as="targetPoint" />
            <mxPoint as="offset" />
          </mxGeometry>
        </mxCell>
      </root>
    </mxGraphModel>
  </diagram>
</mxfile>
